<?xml version="1.0" encoding="UTF-8"?>
<svg width="73px" height="55px" viewBox="0 0 73 55" version="1.1" xmlns="http://www.w3.org/2000/svg" xmlns:xlink="http://www.w3.org/1999/xlink">
    <title>discord</title>
    <g id="Page-1" stroke="none" stroke-width="1" fill="none" fill-rule="evenodd">
        <g id="discord" transform="translate(-0.000000, -0.000000)" fill="#FFFFFF" fill-rule="nonzero">
            <path d="M61.0844945,4.5591999 C56.4854102,2.44894452 51.5535876,0.894201369 46.3970601,0.00373538925 C46.3031535,-0.0134503257 46.2093486,0.0294977008 46.1609725,0.115395786 C45.5266966,1.24350534 44.8241251,2.71521639 44.3321319,3.87197457 C38.7859531,3.04165351 33.2682309,3.04165351 27.8357766,3.87197457 C27.3436818,2.68950388 26.615601,1.24350534 25.9784795,0.115395786 C25.9301033,0.0323636804 25.8362984,-0.010584346 25.7423918,0.00373538925 C20.58871,0.891355715 15.6568874,2.44609887 11.0549575,4.5591999 C11.0151183,4.57637545 10.9809705,4.60503525 10.9583069,4.64223201 C1.60367812,18.6178465 -0.958945728,32.2499499 0.29819186,45.7130418 C0.303880119,45.7788983 0.340854305,45.8419092 0.392050662,45.8819517 C6.56396734,50.414468 12.5425229,53.1661134 18.4100573,54.9899741 C18.5039638,55.0186338 18.6034601,54.9842827 18.6632188,54.9069419 C20.0511863,53.0115334 21.2884359,51.0129699 22.3492549,48.9112515 C22.4118592,48.788177 22.3521005,48.642134 22.2241477,48.593453 C20.2616631,47.8490097 18.3929834,46.9413478 16.595445,45.9106115 C16.4532639,45.8275793 16.4418813,45.6242167 16.5726797,45.5268547 C16.9509484,45.2434073 17.3293187,44.9484757 17.6905134,44.6506983 C17.7558618,44.596326 17.8469228,44.5848418 17.9237554,44.6191929 C29.7328112,50.0107917 42.5175196,50.0107917 54.18724,44.6191929 C54.2640727,44.5819961 54.3551336,44.5934804 54.4233276,44.6478527 C54.784624,44.94563 55.1628927,45.2434073 55.544007,45.5268547 C55.6748054,45.6242167 55.6662684,45.8275793 55.5240874,45.9106115 C53.726549,46.961369 51.8578693,47.8490097 49.892539,48.5906073 C49.7645862,48.6392883 49.7076731,48.788177 49.7702775,48.9112515 C50.8538617,51.0100226 52.0911113,53.0085861 53.4534679,54.9040963 C53.510381,54.9842827 53.6127229,55.0186338 53.7066294,54.9899741 C59.6026204,53.1661134 65.5811353,50.414468 71.753053,45.8819517 C71.8071204,45.8419092 71.8412682,45.781744 71.8469595,45.7158874 C73.3514972,30.1510771 69.32693,16.6307672 61.1782994,4.64507766 C61.1583798,4.60503525 61.1243336,4.57637545 61.0844945,4.5591999 Z M24.112747,37.5154253 C20.5574078,37.5154253 17.6279091,34.251359 17.6279091,30.2427478 C17.6279091,26.2341366 20.5005963,22.9700703 24.112747,22.9700703 C27.7532526,22.9700703 30.6543964,26.2627964 30.5974833,30.2427478 C30.5974833,34.251359 27.7247961,37.5154253 24.112747,37.5154253 Z M48.0893093,37.5154253 C44.5340717,37.5154253 41.604573,34.251359 41.604573,30.2427478 C41.604573,26.2341366 44.4771586,22.9700703 48.0893093,22.9700703 C51.7299165,22.9700703 54.6309587,26.2627964 54.5741473,30.2427478 C54.5741473,34.251359 51.7299165,37.5154253 48.0893093,37.5154253 Z" id="Shape"></path>
        </g>
    </g>
</svg>