<svg id="eUm4XnsHJzQ1" xmlns="http://www.w3.org/2000/svg" xmlns:xlink="http://www.w3.org/1999/xlink" viewBox="0 0 796 981" shape-rendering="geometricPrecision" text-rendering="geometricPrecision"><defs><linearGradient id="eUm4XnsHJzQ10-fill" x1="0.5" y1="0" x2="0.5" y2="1" spreadMethod="pad" gradientUnits="objectBoundingBox"><stop id="eUm4XnsHJzQ10-fill-0" offset="0%" stop-color="rgb(255,255,255)"/><stop id="eUm4XnsHJzQ10-fill-1" offset="100%" stop-color="rgb(199,199,199)"/></linearGradient><linearGradient id="eUm4XnsHJzQ11-fill" x1="0.5" y1="0" x2="0.5" y2="1" spreadMethod="pad" gradientUnits="objectBoundingBox"><stop id="eUm4XnsHJzQ11-fill-0" offset="0%" stop-color="rgb(174,174,174)"/><stop id="eUm4XnsHJzQ11-fill-1" offset="100%" stop-color="rgb(199,199,199)"/></linearGradient></defs><g id="eUm4XnsHJzQ2"><path id="eUm4XnsHJzQ3" d="M484.49619,94.022867L484.492467,94.022867C484.486881,94.022867,484.483159,94.024731,484.479432,94.024731C484.466401,94.024731,484.455229,94.026589,484.442198,94.026589C484.222506,94.054519,484.049361,94.229524,484.025158,94.451074C481.912027,105.303654,475.883579,112.15503,464.433797,114.050061C464.227141,114.066819,464.055854,114.21762,464.011171,114.418696C464.011171,114.420559,464.009309,114.422418,464.009309,114.424282C464.007447,114.437312,464.003724,114.452207,464.003724,114.465242C464.001862,114.468965,464.001862,114.472687,464.001862,114.476414C464,114.487581,464,114.498753,464,114.509925L464,114.530405L464,114.554608C464,114.56578,464.001862,114.576947,464.003724,114.588119C464.003724,114.591841,464.003724,114.593705,464.005585,114.597427C464.007447,114.612322,464.011171,114.627216,464.013033,114.64211C464.063301,114.839458,464.234583,114.984679,464.437518,114.999573C475.882054,116.89489,481.908405,123.74455,484.023638,134.590934L484.023638,134.592796C484.045977,134.819933,484.224713,135.000528,484.453709,135.022867L484.457431,135.022867L484.485356,135.022867L484.5077,135.022867L484.518867,135.022867C484.755312,135.013558,484.950802,134.832964,484.975004,134.596518C487.093712,123.74394,493.116588,116.892564,504.56494,114.997533C504.771596,114.980776,504.944747,114.829974,504.989425,114.62704C504.989425,114.625176,504.991284,114.625176,504.991284,114.623317C504.993147,114.608423,504.99687,114.595387,504.99687,114.582357C504.998733,114.578634,504.998733,114.574907,504.998733,114.571185C505.000592,114.560013,505.000592,114.548846,505.000592,114.537674L505.000592,114.51533L505.000592,114.492991C505.000592,114.481819,504.998733,114.470647,504.99687,114.45948C504.99687,114.455753,504.99687,114.45203,504.995006,114.448308C504.993147,114.433414,504.991284,114.418519,504.987561,114.405484C504.937292,114.206272,504.76601,114.062915,504.563076,114.046157C493.118538,112.15084,487.096,105.303087,484.976958,94.454797C484.954615,94.22766,484.775883,94.047065,484.546887,94.024726L484.543165,94.024726C484.533852,94.022867,484.524544,94.022867,484.515235,94.022867L484.496619,94.022867L484.49619,94.022867Z" transform="matrix(1 0 0 1 0 -184.022867)" opacity="0" fill="rgb(255,255,255)" fill-rule="evenodd" stroke="none" stroke-width="1"/><path id="eUm4XnsHJzQ4" d="M484.49619,94.022867L484.492467,94.022867C484.486881,94.022867,484.483159,94.024731,484.479432,94.024731C484.466401,94.024731,484.455229,94.026589,484.442198,94.026589C484.222506,94.054519,484.049361,94.229524,484.025158,94.451074C481.912027,105.303654,475.883579,112.15503,464.433797,114.050061C464.227141,114.066819,464.055854,114.21762,464.011171,114.418696C464.011171,114.420559,464.009309,114.422418,464.009309,114.424282C464.007447,114.437312,464.003724,114.452207,464.003724,114.465242C464.001862,114.468965,464.001862,114.472687,464.001862,114.476414C464,114.487581,464,114.498753,464,114.509925L464,114.530405L464,114.554608C464,114.56578,464.001862,114.576947,464.003724,114.588119C464.003724,114.591841,464.003724,114.593705,464.005585,114.597427C464.007447,114.612322,464.011171,114.627216,464.013033,114.64211C464.063301,114.839458,464.234583,114.984679,464.437518,114.999573C475.882054,116.89489,481.908405,123.74455,484.023638,134.590934L484.023638,134.592796C484.045977,134.819933,484.224713,135.000528,484.453709,135.022867L484.457431,135.022867L484.485356,135.022867L484.5077,135.022867L484.518867,135.022867C484.755312,135.013558,484.950802,134.832964,484.975004,134.596518C487.093712,123.74394,493.116588,116.892564,504.56494,114.997533C504.771596,114.980776,504.944747,114.829974,504.989425,114.62704C504.989425,114.625176,504.991284,114.625176,504.991284,114.623317C504.993147,114.608423,504.99687,114.595387,504.99687,114.582357C504.998733,114.578634,504.998733,114.574907,504.998733,114.571185C505.000592,114.560013,505.000592,114.548846,505.000592,114.537674L505.000592,114.51533L505.000592,114.492991C505.000592,114.481819,504.998733,114.470647,504.99687,114.45948C504.99687,114.455753,504.99687,114.45203,504.995006,114.448308C504.993147,114.433414,504.991284,114.418519,504.987561,114.405484C504.937292,114.206272,504.76601,114.062915,504.563076,114.046157C493.118538,112.15084,487.096,105.303087,484.976958,94.454797C484.954615,94.22766,484.775883,94.047065,484.546887,94.024726L484.543165,94.024726C484.533852,94.022867,484.524544,94.022867,484.515235,94.022867L484.496619,94.022867L484.49619,94.022867Z" fill="rgb(255,255,255)" fill-rule="evenodd" stroke="none" stroke-width="1"/><g id="eUm4XnsHJzQ5" transform="matrix(1 0 0 1 207 195)"><g id="eUm4XnsHJzQ6" transform="matrix(1 0 0 1 0 300.236)"><path id="eUm4XnsHJzQ7" d="M57.805648,-10.023184C59.512609,-6.122943,61.231667,-2.195121,62.973969,1.775973C64.727725,5.773172,66.465165,9.723352,68.19037,13.645717C69.710772,17.10245,71.221686,20.537612,72.725896,23.964304L72.725896,23.964304L74.539148,28.128516C85.739504,53.850438,96.93177,79.553819,108.051486,105.296817C109.868861,109.718055,110.351156,114.897242,108.61977,119.072806C104.061387,130.084924,97.0077,146.767898,87.457954,169.122279L87.457954,169.122279L87.053843,170.068045C85.751815,173.115228,83.337934,175.346183,80.487766,176.489835C77.637597,177.633487,74.351139,177.689836,71.303957,176.387808C70.114767,175.87968,69.04989,175.202214,68.125848,174.389021C67.888394,174.123226,67.65063,173.856705,67.412556,173.589457C34.356585,136.482801,14.524513,106.923481,6.961833,84.931323C1.937518,70.385265,-0.661777,55.508085,8.004621,39.665205C14.135512,28.407435,33.260956,7.111102,46.328709,-2.625309C49.518281,-5.001769,53.47099,-7.527026,57.805648,-10.023184Z" transform="matrix(0.984808 -0.173648 0.173648 0.984808 -14.203 11.0503)" fill="rgb(245,0,0)" fill-rule="evenodd" stroke="rgb(0,0,0)" stroke-width="22"/><path id="eUm4XnsHJzQ8" d="M326.805648,-10.023184C328.512609,-6.122943,330.231667,-2.195121,331.973969,1.775973C333.727725,5.773172,335.465165,9.723352,337.19037,13.645717C338.710772,17.10245,340.221685,20.537612,341.725896,23.964304L341.725896,23.964304L343.539148,28.128516C354.739504,53.850438,365.93177,79.553819,377.051486,105.296817C378.868861,109.718055,379.351156,114.897242,377.61977,119.072806C373.061387,130.084924,366.0077,146.767898,356.457954,169.122279L356.457954,169.122279L356.053843,170.068045C354.751815,173.115228,352.337934,175.346183,349.487766,176.489835C346.637597,177.633487,343.351139,177.689836,340.303957,176.387808C339.114767,175.87968,338.04989,175.202214,337.125848,174.389021C336.888394,174.123226,336.65063,173.856705,336.412556,173.589457C303.356585,136.482801,283.524513,106.923481,275.961833,84.931323C270.937518,70.385265,268.338223,55.508085,277.004621,39.665205C283.135512,28.407435,302.260956,7.111102,315.328709,-2.625309C318.518281,-5.001769,322.47099,-7.527026,326.805648,-10.023184Z" transform="matrix(-0.984808 -0.173648 -0.173648 0.984808 660.218 57.7616)" fill="rgb(245,0,0)" fill-rule="evenodd" stroke="rgb(0,0,0)" stroke-width="22"/></g><g id="eUm4XnsHJzQ9" transform="matrix(1 0 0 1 31.2006 0)"><path id="eUm4XnsHJzQ10" d="M157.975195,11C193.816322,11,225.615027,43.077954,250.608974,83.718013C283.742342,137.592736,304.95039,208.733715,304.95039,256.867038C304.95039,300.153944,287.413419,343.364044,259.308888,375.232641C233.042624,405.016771,197.411765,425,157.975195,425C118.538625,425,82.907767,405.016771,56.641503,375.232641C28.536971,343.364044,11,300.153944,11,256.867038C11,208.733715,32.208049,137.592736,65.341416,83.718013C90.335364,43.077954,122.134068,11,157.975195,11Z" fill="url(#eUm4XnsHJzQ10-fill)" fill-rule="evenodd" stroke="rgb(0,0,0)" stroke-width="22"/><path id="eUm4XnsHJzQ11" d="M150.734555,414.014179C91.894054,414.014179,84.443156,122.729911,157.787811,21.943107C84.389753,21.943107,20.84348,180.280834,20.84348,254.646793C20.84348,329.012753,77.336497,414.014179,150.734555,414.014179Z" fill="url(#eUm4XnsHJzQ11-fill)" fill-rule="evenodd" stroke="none" stroke-width="1"/><path id="eUm4XnsHJzQ12" d="M157.622727,98.912628C172.987816,98.912628,186.498984,110.244163,196.936988,124.736751C210.225707,143.187399,218.717084,167.653892,218.717084,187.428964C218.717084,204.569022,212.060208,219.587365,201.193613,230.359955C190.09602,241.361547,174.659532,247.912628,157.622727,247.912628C140.585921,247.912628,125.149434,241.361547,114.05184,230.359955C103.185246,219.587365,96.528369,204.569022,96.528369,187.428964C96.528369,167.653892,105.019746,143.187399,118.308465,124.736751C128.74647,110.244163,142.257638,98.912628,157.622727,98.912628Z" fill="rgb(255,230,118)" fill-rule="evenodd" stroke="rgb(0,0,0)" stroke-width="19"/><line id="eUm4XnsHJzQ13" x1="159.340044" y1="307" x2="159.340044" y2="474" fill="none" fill-rule="evenodd" stroke="rgb(0,0,0)" stroke-width="30" stroke-linecap="round"/></g></g><ellipse id="eUm4XnsHJzQ14" rx="106.556" ry="36.5" transform="matrix(1 0 0 1 411.541 878.5)" fill="rgb(0,0,0)" fill-opacity="0.3" fill-rule="evenodd" stroke="none" stroke-width="1"/><path id="eUm4XnsHJzQ15" d="M135.491543,315.022867L135.483281,315.022867C135.470883,315.022867,135.462621,315.027003,135.454349,315.027003C135.425427,315.027003,135.400631,315.031129,135.371709,315.031129C134.8841,315.093119,134.499801,315.481544,134.446083,315.973279C129.755962,340.060711,116.375748,355.267423,90.962818,359.473468C90.504141,359.510662,90.123968,359.845369,90.024794,360.291658C90.024794,360.295794,90.020661,360.29992,90.020661,360.304056C90.016529,360.332978,90.008265,360.366036,90.008265,360.394968C90.004133,360.40323,90.004133,360.411492,90.004133,360.419764C90,360.44455,90,360.469346,90,360.494142L90,360.539599L90,360.593317C90,360.618113,90.004133,360.642898,90.008265,360.667695C90.008265,360.675957,90.008265,360.680093,90.012397,360.688355C90.016529,360.721413,90.024794,360.754471,90.028926,360.787529C90.140498,361.225546,90.520661,361.547864,90.971076,361.580923C116.372363,365.787602,129.747923,380.990506,134.442708,405.064187L134.442708,405.068319C134.49229,405.572452,134.888997,405.973285,135.397256,406.022867L135.405518,406.022867L135.467498,406.022867L135.51709,406.022867L135.541876,406.022867C136.066669,406.002206,136.50056,405.601374,136.554278,405.076581C141.256775,380.989152,154.624623,365.782439,180.034379,361.576395C180.493055,361.539201,180.877365,361.204494,180.976528,360.754079C180.976528,360.749943,180.980654,360.749943,180.980654,360.745818C180.98479,360.712759,180.993052,360.683827,180.993052,360.654905C180.997188,360.646643,180.997188,360.638371,180.997188,360.630109C181.001314,360.605313,181.001314,360.580527,181.001314,360.555731L181.001314,360.506139L181.001314,360.456557C181.001314,360.431761,180.997188,360.406964,180.993052,360.382179C180.993052,360.373906,180.993052,360.365644,180.988916,360.357383C180.98479,360.324324,180.980654,360.291266,180.972392,360.262334C180.86082,359.820181,180.480657,359.501998,180.030242,359.464804C154.62895,355.258125,141.261853,340.059452,136.558615,315.98154C136.509023,315.477408,136.112326,315.076574,135.604067,315.026993L135.595805,315.026993C135.575135,315.022867,135.554475,315.022867,135.533815,315.022867L135.492495,315.022867L135.491543,315.022867Z" fill="rgb(255,255,255)" fill-rule="evenodd" stroke="none" stroke-width="1"/><path id="eUm4XnsHJzQ16" d="M135.491543,315.022867L135.483281,315.022867C135.470883,315.022867,135.462621,315.027003,135.454349,315.027003C135.425427,315.027003,135.400631,315.031129,135.371709,315.031129C134.8841,315.093119,134.499801,315.481544,134.446083,315.973279C129.755962,340.060711,116.375748,355.267423,90.962818,359.473468C90.504141,359.510662,90.123968,359.845369,90.024794,360.291658C90.024794,360.295794,90.020661,360.29992,90.020661,360.304056C90.016529,360.332978,90.008265,360.366036,90.008265,360.394968C90.004133,360.40323,90.004133,360.411492,90.004133,360.419764C90,360.44455,90,360.469346,90,360.494142L90,360.539599L90,360.593317C90,360.618113,90.004133,360.642898,90.008265,360.667695C90.008265,360.675957,90.008265,360.680093,90.012397,360.688355C90.016529,360.721413,90.024794,360.754471,90.028926,360.787529C90.140498,361.225546,90.520661,361.547864,90.971076,361.580923C116.372363,365.787602,129.747923,380.990506,134.442708,405.064187L134.442708,405.068319C134.49229,405.572452,134.888997,405.973285,135.397256,406.022867L135.405518,406.022867L135.467498,406.022867L135.51709,406.022867L135.541876,406.022867C136.066669,406.002206,136.50056,405.601374,136.554278,405.076581C141.256775,380.989152,154.624623,365.782439,180.034379,361.576395C180.493055,361.539201,180.877365,361.204494,180.976528,360.754079C180.976528,360.749943,180.980654,360.749943,180.980654,360.745818C180.98479,360.712759,180.993052,360.683827,180.993052,360.654905C180.997188,360.646643,180.997188,360.638371,180.997188,360.630109C181.001314,360.605313,181.001314,360.580527,181.001314,360.555731L181.001314,360.506139L181.001314,360.456557C181.001314,360.431761,180.997188,360.406964,180.993052,360.382179C180.993052,360.373906,180.993052,360.365644,180.988916,360.357383C180.98479,360.324324,180.980654,360.291266,180.972392,360.262334C180.86082,359.820181,180.480657,359.501998,180.030242,359.464804C154.62895,355.258125,141.261853,340.059452,136.558615,315.98154C136.509023,315.477408,136.112326,315.076574,135.604067,315.026993L135.595805,315.026993C135.575135,315.022867,135.554475,315.022867,135.533815,315.022867L135.492495,315.022867L135.491543,315.022867Z" transform="matrix(1 0 0 1 0 -1115.022867)" opacity="0" fill="rgb(255,255,255)" fill-rule="evenodd" stroke="none" stroke-width="1"/><path id="eUm4XnsHJzQ17" d="M661.494331,286.022867L661.488793,286.022867C661.480482,286.022867,661.474944,286.02564,661.469399,286.02564C661.450011,286.02564,661.43339,286.028405,661.414003,286.028405C661.087144,286.069959,660.829537,286.330332,660.793528,286.659956C657.649601,302.806477,648.680447,312.999987,631.645406,315.819424C631.337941,315.844356,631.0831,316.06872,631.01662,316.367881C631.01662,316.370653,631.01385,316.373419,631.01385,316.376191C631.01108,316.395579,631.00554,316.417738,631.00554,316.437133C631.002771,316.442671,631.002771,316.448209,631.002771,316.453754C631,316.470369,631,316.48699,631,316.503612L631,316.534083L631,316.570091C631,316.586713,631.002771,316.603328,631.00554,316.619949C631.00554,316.625487,631.00554,316.62826,631.00831,316.633798C631.01108,316.655958,631.01662,316.678118,631.01939,316.700278C631.09418,316.993893,631.349014,317.209953,631.650941,317.232113C648.678177,320.051975,657.644212,330.242933,660.791266,346.380235L660.791266,346.383005C660.824502,346.720941,661.090427,346.989631,661.431128,347.022867L661.436666,347.022867L661.478213,347.022867L661.511456,347.022867L661.528071,347.022867C661.879855,347.009017,662.170705,346.740328,662.206714,346.388543C665.358937,330.242025,674.319802,320.048514,691.352715,317.229078C691.66018,317.204146,691.917794,316.979782,691.984266,316.677856C691.984266,316.675083,691.987032,316.675083,691.987032,316.672317C691.989804,316.650158,691.995343,316.630763,691.995343,316.611376C691.998115,316.605838,691.998115,316.600293,691.998115,316.594754C692.000881,316.578133,692.000881,316.561518,692.000881,316.544897L692.000881,316.511653L692.000881,316.478417C692.000881,316.461796,691.998115,316.445174,691.995343,316.428559C691.995343,316.423014,691.995343,316.417476,691.99257,316.411938C691.989804,316.389778,691.987032,316.367618,691.981494,316.348224C691.906703,316.051836,691.651869,315.838548,691.349943,315.813616C674.322703,312.993754,665.362341,302.805633,662.209621,286.665494C662.176378,286.327559,661.91046,286.058869,661.569759,286.025633L661.564221,286.025633C661.550365,286.022867,661.536516,286.022867,661.522667,286.022867L661.494969,286.022867L661.494331,286.022867Z" fill="rgb(255,255,255)" fill-rule="evenodd" stroke="none" stroke-width="1"/><path id="eUm4XnsHJzQ18" d="M661.494331,286.022867L661.488793,286.022867C661.480482,286.022867,661.474944,286.02564,661.469399,286.02564C661.450011,286.02564,661.43339,286.028405,661.414003,286.028405C661.087144,286.069959,660.829537,286.330332,660.793528,286.659956C657.649601,302.806477,648.680447,312.999987,631.645406,315.819424C631.337941,315.844356,631.0831,316.06872,631.01662,316.367881C631.01662,316.370653,631.01385,316.373419,631.01385,316.376191C631.01108,316.395579,631.00554,316.417738,631.00554,316.437133C631.002771,316.442671,631.002771,316.448209,631.002771,316.453754C631,316.470369,631,316.48699,631,316.503612L631,316.534083L631,316.570091C631,316.586713,631.002771,316.603328,631.00554,316.619949C631.00554,316.625487,631.00554,316.62826,631.00831,316.633798C631.01108,316.655958,631.01662,316.678118,631.01939,316.700278C631.09418,316.993893,631.349014,317.209953,631.650941,317.232113C648.678177,320.051975,657.644212,330.242933,660.791266,346.380235L660.791266,346.383005C660.824502,346.720941,661.090427,346.989631,661.431128,347.022867L661.436666,347.022867L661.478213,347.022867L661.511456,347.022867L661.528071,347.022867C661.879855,347.009017,662.170705,346.740328,662.206714,346.388543C665.358937,330.242025,674.319802,320.048514,691.352715,317.229078C691.66018,317.204146,691.917794,316.979782,691.984266,316.677856C691.984266,316.675083,691.987032,316.675083,691.987032,316.672317C691.989804,316.650158,691.995343,316.630763,691.995343,316.611376C691.998115,316.605838,691.998115,316.600293,691.998115,316.594754C692.000881,316.578133,692.000881,316.561518,692.000881,316.544897L692.000881,316.511653L692.000881,316.478417C692.000881,316.461796,691.998115,316.445174,691.995343,316.428559C691.995343,316.423014,691.995343,316.417476,691.99257,316.411938C691.989804,316.389778,691.987032,316.367618,691.981494,316.348224C691.906703,316.051836,691.651869,315.838548,691.349943,315.813616C674.322703,312.993754,665.362341,302.805633,662.209621,286.665494C662.176378,286.327559,661.91046,286.058869,661.569759,286.025633L661.564221,286.025633C661.550365,286.022867,661.536516,286.022867,661.522667,286.022867L661.494969,286.022867L661.494331,286.022867Z" transform="matrix(1 0 0 1 0 -1986.022867)" opacity="0" fill="rgb(255,255,255)" fill-rule="evenodd" stroke="none" stroke-width="1"/></g><script><![CDATA[!function(t,n){"object"==typeof exports&&"undefined"!=typeof module?module.exports=n():"function"==typeof define&&define.amd?define(n):((t="undefined"!=typeof globalThis?globalThis:t||self).__SVGATOR_PLAYER__=t.__SVGATOR_PLAYER__||{},t.__SVGATOR_PLAYER__["7c8cb2ed"]=n())}(this,(function(){"use strict";function t(t,n){var r=Object.keys(t);if(Object.getOwnPropertySymbols){var e=Object.getOwnPropertySymbols(t);n&&(e=e.filter((function(n){return Object.getOwnPropertyDescriptor(t,n).enumerable}))),r.push.apply(r,e)}return r}function n(t){return(n="function"==typeof Symbol&&"symbol"==typeof Symbol.iterator?function(t){return typeof t}:function(t){return t&&"function"==typeof Symbol&&t.constructor===Symbol&&t!==Symbol.prototype?"symbol":typeof t})(t)}function r(t,n){if(!(t instanceof n))throw new TypeError("Cannot call a class as a function")}function e(t,n){for(var r=0;r<n.length;r++){var e=n[r];e.enumerable=e.enumerable||!1,e.configurable=!0,"value"in e&&(e.writable=!0),Object.defineProperty(t,e.key,e)}}function i(t,n,r){return n&&e(t.prototype,n),r&&e(t,r),t}function u(t,n,r){return n in t?Object.defineProperty(t,n,{value:r,enumerable:!0,configurable:!0,writable:!0}):t[n]=r,t}function o(t){return(o=Object.setPrototypeOf?Object.getPrototypeOf:function(t){return t.__proto__||Object.getPrototypeOf(t)})(t)}function a(t,n){return(a=Object.setPrototypeOf||function(t,n){return t.__proto__=n,t})(t,n)}function l(t,n){if(n&&("object"==typeof n||"function"==typeof n))return n;if(void 0!==n)throw new TypeError("Derived constructors may only return object or undefined");return function(t){if(void 0===t)throw new ReferenceError("this hasn't been initialised - super() hasn't been called");return t}(t)}function f(t){var n=function(){if("undefined"==typeof Reflect||!Reflect.construct)return!1;if(Reflect.construct.sham)return!1;if("function"==typeof Proxy)return!0;try{return Boolean.prototype.valueOf.call(Reflect.construct(Boolean,[],(function(){}))),!0}catch(t){return!1}}();return function(){var r,e=o(t);if(n){var i=o(this).constructor;r=Reflect.construct(e,arguments,i)}else r=e.apply(this,arguments);return l(this,r)}}function s(t,n,r){return(s="undefined"!=typeof Reflect&&Reflect.get?Reflect.get:function(t,n,r){var e=function(t,n){for(;!Object.prototype.hasOwnProperty.call(t,n)&&null!==(t=o(t)););return t}(t,n);if(e){var i=Object.getOwnPropertyDescriptor(e,n);return i.get?i.get.call(r):i.value}})(t,n,r||t)}var c=h(Math.pow(10,-6));function h(t){var n=arguments.length>1&&void 0!==arguments[1]?arguments[1]:6;if(Number.isInteger(t))return t;var r=Math.pow(10,n);return Math.round((+t+Number.EPSILON)*r)/r}function v(t,n){var r=arguments.length>2&&void 0!==arguments[2]?arguments[2]:c;return Math.abs(t-n)<r}var y=Math.PI/180;function g(t){return t}function d(t,n,r){var e=1-r;return 3*r*e*(t*e+n*r)+r*r*r}function p(){var t=arguments.length>0&&void 0!==arguments[0]?arguments[0]:0,n=arguments.length>1&&void 0!==arguments[1]?arguments[1]:0,r=arguments.length>2&&void 0!==arguments[2]?arguments[2]:1,e=arguments.length>3&&void 0!==arguments[3]?arguments[3]:1;return t<0||t>1||r<0||r>1?null:v(t,n)&&v(r,e)?g:function(i){if(i<=0)return t>0?i*n/t:0===n&&r>0?i*e/r:0;if(i>=1)return r<1?1+(i-1)*(e-1)/(r-1):1===r&&t<1?1+(i-1)*(n-1)/(t-1):1;for(var u,o=0,a=1;o<a;){var l=d(t,r,u=(o+a)/2);if(v(i,l))break;l<i?o=u:a=u}return d(n,e,u)}}function b(){return 1}function m(t){return 1===t?1:0}function w(){var t=arguments.length>0&&void 0!==arguments[0]?arguments[0]:1,n=arguments.length>1&&void 0!==arguments[1]?arguments[1]:0;if(1===t){if(0===n)return m;if(1===n)return b}var r=1/t;return function(t){return t>=1?1:(t+=n*r)-t%r}}function A(t,n,r){return t>=.5?r:n}function x(t,n,r){return 0===t||n===r?n:t*(r-n)+n}function k(t,n,r){var e=x(t,n,r);return e<=0?0:e}function _(t,n,r){return 0===t?n:1===t?r:{x:x(t,n.x,r.x),y:x(t,n.y,r.y)}}function S(t,n,r){return 0===t?n:1===t?r:{x:k(t,n.x,r.x),y:k(t,n.y,r.y)}}function O(t,n,r){var e=function(t,n,r){return Math.round(x(t,n,r))}(t,n,r);return e<=0?0:e>=255?255:e}function j(t,n,r){return 0===t?n:1===t?r:{r:O(t,n.r,r.r),g:O(t,n.g,r.g),b:O(t,n.b,r.b),a:x(t,null==n.a?1:n.a,null==r.a?1:r.a)}}function P(t,n,r){if(0===t)return n;if(1===t)return r;var e=n.length;if(e!==r.length)return A(t,n,r);for(var i=[],u=0;u<e;u++)i.push(j(t,n[u],r[u]));return i}function E(t,n,r){var e=n.length;if(e!==r.length)return A(t,n,r);for(var i=new Array(e),u=0;u<e;u++)i[u]=x(t,n[u],r[u]);return i}function M(t,n){for(var r=[],e=0;e<t;e++)r.push(n);return r}function I(t,n){if(--n<=0)return t;var r=(t=Object.assign([],t)).length;do{for(var e=0;e<r;e++)t.push(t[e])}while(--n>0);return t}var B,R=function(){function t(n){r(this,t),this.list=n,this.length=n.length}return i(t,[{key:"setAttribute",value:function(t,n){for(var r=this.list,e=0;e<this.length;e++)r[e].setAttribute(t,n)}},{key:"removeAttribute",value:function(t){for(var n=this.list,r=0;r<this.length;r++)n[r].removeAttribute(t)}},{key:"style",value:function(t,n){for(var r=this.list,e=0;e<this.length;e++)r[e].style[t]=n}}]),t}(),F=/-./g,N=function(t,n){return n.toUpperCase()};function T(t){return"function"==typeof t?t:A}function q(t){return t?"function"==typeof t?t:Array.isArray(t)?function(t){var n=arguments.length>1&&void 0!==arguments[1]?arguments[1]:g;if(!Array.isArray(t))return n;switch(t.length){case 1:return w(t[0])||n;case 2:return w(t[0],t[1])||n;case 4:return p(t[0],t[1],t[2],t[3])||n}return n}(t,null):function(t,n){var r=arguments.length>2&&void 0!==arguments[2]?arguments[2]:g;switch(t){case"linear":return g;case"steps":return w(n.steps||1,n.jump||0)||r;case"bezier":case"cubic-bezier":return p(n.x1||0,n.y1||0,n.x2||0,n.y2||0)||r}return r}(t.type,t.value,null):null}function L(t,n,r){var e=arguments.length>3&&void 0!==arguments[3]&&arguments[3],i=n.length-1;if(t<=n[0].t)return e?[0,0,n[0].v]:n[0].v;if(t>=n[i].t)return e?[i,1,n[i].v]:n[i].v;var u,o=n[0],a=null;for(u=1;u<=i;u++){if(!(t>n[u].t)){a=n[u];break}o=n[u]}return null==a?e?[i,1,n[i].v]:n[i].v:o.t===a.t?e?[u,1,a.v]:a.v:(t=(t-o.t)/(a.t-o.t),o.e&&(t=o.e(t)),e?[u,t,r(t,o.v,a.v)]:r(t,o.v,a.v))}function C(t,n){var r=arguments.length>2&&void 0!==arguments[2]?arguments[2]:null;return t&&t.length?"function"!=typeof n?null:("function"!=typeof r&&(r=null),function(e){var i=L(e,t,n);return null!=i&&r&&(i=r(i)),i}):null}function D(t,n){return t.t-n.t}function V(t,r,e,i,u){var o,a="@"===e[0],l="#"===e[0],f=B[e],s=A;switch(a?(o=e.substr(1),e=o.replace(F,N)):l&&(e=e.substr(1)),n(f)){case"function":if(s=f(i,u,L,q,e,a,r,t),l)return s;break;case"string":s=C(i,T(f));break;case"object":if((s=C(i,T(f.i),f.f))&&"function"==typeof f.u)return f.u(r,s,e,a,t)}return s?function(t,n,r){if(arguments.length>3&&void 0!==arguments[3]&&arguments[3])return t instanceof R?function(e){return t.style(n,r(e))}:function(e){return t.style[n]=r(e)};if(Array.isArray(n)){var e=n.length;return function(i){var u=r(i);if(null==u)for(var o=0;o<e;o++)t[o].removeAttribute(n);else for(var a=0;a<e;a++)t[a].setAttribute(n,u)}}return function(e){var i=r(e);null==i?t.removeAttribute(n):t.setAttribute(n,i)}}(r,e,s,a):null}function z(t,r,e,i){if(!i||"object"!==n(i))return null;var u=null,o=null;return Array.isArray(i)?o=function(t){if(!t||!t.length)return null;for(var n=0;n<t.length;n++)t[n].e&&(t[n].e=q(t[n].e));return t.sort(D)}(i):(o=i.keys,u=i.data||null),o?V(t,r,e,o,u):null}function G(t,n,r){if(!r)return null;var e=[];for(var i in r)if(r.hasOwnProperty(i)){var u=z(t,n,i,r[i]);u&&e.push(u)}return e.length?e:null}function Y(t,n){if(!n.duration||n.duration<0)return null;var r=function(t,n){if(!n)return null;var r=[];if(Array.isArray(n))for(var e=n.length,i=0;i<e;i++){var u=n[i];if(2===u.length){var o=null;if("string"==typeof u[0])o=t.getElementById(u[0]);else if(Array.isArray(u[0])){o=[];for(var a=0;a<u[0].length;a++)if("string"==typeof u[0][a]){var l=t.getElementById(u[0][a]);l&&o.push(l)}o=o.length?1===o.length?o[0]:new R(o):null}if(o){var f=G(t,o,u[1]);f&&(r=r.concat(f))}}}else for(var s in n)if(n.hasOwnProperty(s)){var c=t.getElementById(s);if(c){var h=G(t,c,n[s]);h&&(r=r.concat(h))}}return r.length?r:null}(t,n.elements);return r?function(t,n){var r=arguments.length>2&&void 0!==arguments[2]?arguments[2]:1/0,e=arguments.length>3&&void 0!==arguments[3]?arguments[3]:1,i=arguments.length>4&&void 0!==arguments[4]&&arguments[4],u=arguments.length>5&&void 0!==arguments[5]?arguments[5]:1,o=t.length,a=e>0?n:0;i&&r%2==0&&(a=n-a);var l=null;return function(f,s){var c=f%n,h=1+(f-c)/n;s*=e,i&&h%2==0&&(s=-s);var v=!1;if(h>r)c=a,v=!0,-1===u&&(c=e>0?0:n);else if(s<0&&(c=n-c),c===l)return!1;l=c;for(var y=0;y<o;y++)t[y](c);return v}}(r,n.duration,n.iterations||1/0,n.direction||1,!!n.alternate,n.fill||1):null}function Q(t){return+("0x"+(t.replace(/[^0-9a-fA-F]+/g,"")||27))}function U(t,n,r){return!t||!r||n>t.length?t:t.substring(0,n)+U(t.substring(n+1),r,r)}function $(t){var n=arguments.length>1&&void 0!==arguments[1]?arguments[1]:27;return!t||t%n?t%n:$(t/n,n)}function H(t,n,r){if(t&&t.length){var e=Q(r),i=Q(n),u=$(e)+5,o=U(t,$(e,5),u);return o=o.replace(/\x7c$/g,"==").replace(/\x2f$/g,"="),o=function(t,n,r){var e=+("0x"+t.substring(0,4));t=t.substring(4);for(var i=n%e+r%27,u=[],o=0;o<t.length;o+=2)if("|"!==t[o]){var a=+("0x"+t[o]+t[o+1])-i;u.push(a)}else{var l=+("0x"+t.substring(o+1,o+1+4))-i;o+=3,u.push(l)}return String.fromCharCode.apply(String,u)}(o=(o=atob(o)).replace(/[\x41-\x5A]/g,""),i,e),o=JSON.parse(o)}}Number.isInteger||(Number.isInteger=function(t){return"number"==typeof t&&isFinite(t)&&Math.floor(t)===t}),Number.EPSILON||(Number.EPSILON=2220446049250313e-31);var J=function(){function n(t,e){var i=arguments.length>2&&void 0!==arguments[2]?arguments[2]:{};r(this,n),this._id=0,this._running=!1,this._rollingBack=!1,this._animations=t,this.duration=e.duration,this.alternate=e.alternate,this.fill=e.fill,this.iterations=e.iterations,this.direction=i.direction||1,this.speed=i.speed||1,this.fps=i.fps||100,this.offset=i.offset||0,this.rollbackStartOffset=0}return i(n,[{key:"_rollback",value:function(){var t=this,n=1/0,r=null;this.rollbackStartOffset=this.offset,this._rollingBack||(this._rollingBack=!0,this._running=!0);this._id=window.requestAnimationFrame((function e(i){if(t._rollingBack){null==r&&(r=i);var u=i-r,o=t.rollbackStartOffset-u,a=Math.round(o*t.speed);if(a>t.duration&&n!=1/0){var l=!!t.alternate&&a/t.duration%2>1,f=a%t.duration;a=(f+=l?t.duration:0)||t.duration}var s=t.fps?1e3/t.fps:0,c=Math.max(0,a);if(c<n-s){t.offset=c,n=c;for(var h=t._animations,v=h.length,y=0;y<v;y++)h[y](c,t.direction)}var g=!1;if(t.iterations>0&&-1===t.fill){var d=t.iterations*t.duration,p=d==a;a=p?0:a,t.offset=p?0:t.offset,g=a>d}a>0&&t.offset>=a&&!g?t._id=window.requestAnimationFrame(e):t.stop()}}))}},{key:"_start",value:function(){var t=this,n=arguments.length>0&&void 0!==arguments[0]?arguments[0]:0,r=-1/0,e=null,i={},u=function u(o){t._running=!0,null==e&&(e=o);var a=Math.round((o-e+n)*t.speed),l=t.fps?1e3/t.fps:0;if(a>r+l&&!t._rollingBack){t.offset=a,r=a;for(var f=t._animations,s=f.length,c=0,h=0;h<s;h++)i[h]?c++:(i[h]=f[h](a,t.direction),i[h]&&c++);if(c===s)return void t._stop()}t._id=window.requestAnimationFrame(u)};this._id=window.requestAnimationFrame(u)}},{key:"_stop",value:function(){this._id&&window.cancelAnimationFrame(this._id),this._running=!1,this._rollingBack=!1}},{key:"play",value:function(){!this._rollingBack&&this._running||(this._rollingBack=!1,this.rollbackStartOffset>this.duration&&(this.offset=this.rollbackStartOffset-(this.rollbackStartOffset-this.offset)%this.duration,this.rollbackStartOffset=0),this._start(this.offset))}},{key:"stop",value:function(){this._stop(),this.offset=0,this.rollbackStartOffset=0;var t=this.direction,n=this._animations;window.requestAnimationFrame((function(){for(var r=0;r<n.length;r++)n[r](0,t)}))}},{key:"reachedToEnd",value:function(){return this.iterations>0&&this.offset>=this.iterations*this.duration}},{key:"restart",value:function(){this._stop(),this.offset=0,this._start()}},{key:"pause",value:function(){this._stop()}},{key:"reverse",value:function(){this.direction=-this.direction}}],[{key:"build",value:function(r,e){return delete r.animationSettings,r.options=H(r.options,r.root,"7c8cb2ed"),r.animations.map((function(n){var e=H(n.s,r.root,"7c8cb2ed");for(var i in delete n.s,r.animationSettings||(r.animationSettings=function(n){for(var r=1;r<arguments.length;r++){var e=null!=arguments[r]?arguments[r]:{};r%2?t(Object(e),!0).forEach((function(t){u(n,t,e[t])})):Object.getOwnPropertyDescriptors?Object.defineProperties(n,Object.getOwnPropertyDescriptors(e)):t(Object(e)).forEach((function(t){Object.defineProperty(n,t,Object.getOwnPropertyDescriptor(e,t))}))}return n}({},e)),e)e.hasOwnProperty(i)&&(n[i]=e[i])})),(r=function(t,n){if(B=n,!t||!t.root||!Array.isArray(t.animations))return null;for(var r=document.getElementsByTagName("svg"),e=!1,i=0;i<r.length;i++)if(r[i].id===t.root&&!r[i].svgatorAnimation){(e=r[i]).svgatorAnimation=!0;break}if(!e)return null;var u=t.animations.map((function(t){return Y(e,t)})).filter((function(t){return!!t}));return u.length?{element:e,animations:u,animationSettings:t.animationSettings,options:t.options||void 0}:null}(r,e))?{el:r.element,options:r.options||{},player:new n(r.animations,r.animationSettings,r.options)}:null}},{key:"push",value:function(t){return this.build(t)}},{key:"init",value:function(){var t=this,n=window.__SVGATOR_PLAYER__&&window.__SVGATOR_PLAYER__["7c8cb2ed"];Array.isArray(n)&&n.splice(0).forEach((function(n){return t.build(n)}))}}]),n}();function Z(t){return h(t)+""}function K(t){var n=arguments.length>1&&void 0!==arguments[1]?arguments[1]:" ";return t&&t.length?t.map(Z).join(n):""}function W(t){return Z(t.x)+","+Z(t.y)}function X(t){return t?null==t.a||t.a>=1?"rgb("+t.r+","+t.g+","+t.b+")":"rgba("+t.r+","+t.g+","+t.b+","+t.a+")":"transparent"}!function(){for(var t=0,n=["ms","moz","webkit","o"],r=0;r<n.length&&!window.requestAnimationFrame;++r)window.requestAnimationFrame=window[n[r]+"RequestAnimationFrame"],window.cancelAnimationFrame=window[n[r]+"CancelAnimationFrame"]||window[n[r]+"CancelRequestAnimationFrame"];window.requestAnimationFrame||(window.requestAnimationFrame=function(n){var r=Date.now(),e=Math.max(0,16-(r-t)),i=window.setTimeout((function(){n(r+e)}),e);return t=r+e,i},window.cancelAnimationFrame=window.clearTimeout)}();var tt={f:null,i:S,u:function(t,n){return function(r){var e=n(r);t.setAttribute("rx",Z(e.x)),t.setAttribute("ry",Z(e.y))}}},nt={f:null,i:function(t,n,r){return 0===t?n:1===t?r:{width:k(t,n.width,r.width),height:k(t,n.height,r.height)}},u:function(t,n){return function(r){var e=n(r);t.setAttribute("width",Z(e.width)),t.setAttribute("height",Z(e.height))}}},rt=Math.sin,et=Math.cos,it=Math.acos,ut=Math.asin,ot=Math.tan,at=Math.atan2,lt=Math.PI/180,ft=180/Math.PI,st=Math.sqrt,ct=function(){function t(){var n=arguments.length>0&&void 0!==arguments[0]?arguments[0]:1,e=arguments.length>1&&void 0!==arguments[1]?arguments[1]:0,i=arguments.length>2&&void 0!==arguments[2]?arguments[2]:0,u=arguments.length>3&&void 0!==arguments[3]?arguments[3]:1,o=arguments.length>4&&void 0!==arguments[4]?arguments[4]:0,a=arguments.length>5&&void 0!==arguments[5]?arguments[5]:0;r(this,t),this.m=[n,e,i,u,o,a],this.i=null,this.w=null,this.s=null}return i(t,[{key:"determinant",get:function(){var t=this.m;return t[0]*t[3]-t[1]*t[2]}},{key:"isIdentity",get:function(){if(null===this.i){var t=this.m;this.i=1===t[0]&&0===t[1]&&0===t[2]&&1===t[3]&&0===t[4]&&0===t[5]}return this.i}},{key:"point",value:function(t,n){var r=this.m;return{x:r[0]*t+r[2]*n+r[4],y:r[1]*t+r[3]*n+r[5]}}},{key:"translateSelf",value:function(){var t=arguments.length>0&&void 0!==arguments[0]?arguments[0]:0,n=arguments.length>1&&void 0!==arguments[1]?arguments[1]:0;if(!t&&!n)return this;var r=this.m;return r[4]+=r[0]*t+r[2]*n,r[5]+=r[1]*t+r[3]*n,this.w=this.s=this.i=null,this}},{key:"rotateSelf",value:function(){var t=arguments.length>0&&void 0!==arguments[0]?arguments[0]:0;if(t%=360){var n=rt(t*=lt),r=et(t),e=this.m,i=e[0],u=e[1];e[0]=i*r+e[2]*n,e[1]=u*r+e[3]*n,e[2]=e[2]*r-i*n,e[3]=e[3]*r-u*n,this.w=this.s=this.i=null}return this}},{key:"scaleSelf",value:function(){var t=arguments.length>0&&void 0!==arguments[0]?arguments[0]:1,n=arguments.length>1&&void 0!==arguments[1]?arguments[1]:1;if(1!==t||1!==n){var r=this.m;r[0]*=t,r[1]*=t,r[2]*=n,r[3]*=n,this.w=this.s=this.i=null}return this}},{key:"skewSelf",value:function(t,n){if(n%=360,(t%=360)||n){var r=this.m,e=r[0],i=r[1],u=r[2],o=r[3];t&&(t=ot(t*lt),r[2]+=e*t,r[3]+=i*t),n&&(n=ot(n*lt),r[0]+=u*n,r[1]+=o*n),this.w=this.s=this.i=null}return this}},{key:"resetSelf",value:function(){var t=arguments.length>0&&void 0!==arguments[0]?arguments[0]:1,n=arguments.length>1&&void 0!==arguments[1]?arguments[1]:0,r=arguments.length>2&&void 0!==arguments[2]?arguments[2]:0,e=arguments.length>3&&void 0!==arguments[3]?arguments[3]:1,i=arguments.length>4&&void 0!==arguments[4]?arguments[4]:0,u=arguments.length>5&&void 0!==arguments[5]?arguments[5]:0,o=this.m;return o[0]=t,o[1]=n,o[2]=r,o[3]=e,o[4]=i,o[5]=u,this.w=this.s=this.i=null,this}},{key:"recomposeSelf",value:function(){var t=arguments.length>0&&void 0!==arguments[0]?arguments[0]:null,n=arguments.length>1&&void 0!==arguments[1]?arguments[1]:null,r=arguments.length>2&&void 0!==arguments[2]?arguments[2]:null,e=arguments.length>3&&void 0!==arguments[3]?arguments[3]:null,i=arguments.length>4&&void 0!==arguments[4]?arguments[4]:null;return this.isIdentity||this.resetSelf(),t&&(t.x||t.y)&&this.translateSelf(t.x,t.y),n&&this.rotateSelf(n),r&&(r.x&&this.skewSelf(r.x,0),r.y&&this.skewSelf(0,r.y)),!e||1===e.x&&1===e.y||this.scaleSelf(e.x,e.y),i&&(i.x||i.y)&&this.translateSelf(i.x,i.y),this}},{key:"decompose",value:function(){var t=arguments.length>0&&void 0!==arguments[0]?arguments[0]:0,n=arguments.length>1&&void 0!==arguments[1]?arguments[1]:0,r=this.m,e=r[0]*r[0]+r[1]*r[1],i=[[r[0],r[1]],[r[2],r[3]]],u=st(e);if(0===u)return{origin:{x:h(r[4]),y:h(r[5])},translate:{x:h(t),y:h(n)},scale:{x:0,y:0},skew:{x:0,y:0},rotate:0};i[0][0]/=u,i[0][1]/=u;var o=r[0]*r[3]-r[1]*r[2]<0;o&&(u=-u);var a=i[0][0]*i[1][0]+i[0][1]*i[1][1];i[1][0]-=i[0][0]*a,i[1][1]-=i[0][1]*a;var l=st(i[1][0]*i[1][0]+i[1][1]*i[1][1]);if(0===l)return{origin:{x:h(r[4]),y:h(r[5])},translate:{x:h(t),y:h(n)},scale:{x:h(u),y:0},skew:{x:0,y:0},rotate:0};i[1][0]/=l,i[1][1]/=l,a/=l;var f=0;return i[1][1]<0?(f=it(i[1][1])*ft,i[0][1]<0&&(f=360-f)):f=ut(i[0][1])*ft,o&&(f=-f),a=at(a,st(i[0][0]*i[0][0]+i[0][1]*i[0][1]))*ft,o&&(a=-a),{origin:{x:h(r[4]),y:h(r[5])},translate:{x:h(t),y:h(n)},scale:{x:h(u),y:h(l)},skew:{x:h(a),y:0},rotate:h(f)}}},{key:"toString",value:function(){return null===this.s&&(this.s="matrix("+this.m.map((function(t){return h(t)})).join(" ")+")"),this.s}}]),t}();Object.freeze({M:2,L:2,Z:0,H:1,V:1,C:6,Q:4,T:2,S:4,A:7});var ht={},vt=null;function yt(t){var r=function(){if(vt)return vt;if("object"!==("undefined"==typeof document?"undefined":n(document))||!document.createElementNS)return{};var t=document.createElementNS("http://www.w3.org/2000/svg","svg");return t&&t.style?(t.style.position="absolute",t.style.opacity="0.01",t.style.zIndex="-9999",t.style.left="-9999px",t.style.width="1px",t.style.height="1px",vt={svg:t}):{}}().svg;if(!r)return function(t){return null};var e=document.createElementNS(r.namespaceURI,"path");e.setAttributeNS(null,"d",t),e.setAttributeNS(null,"fill","none"),e.setAttributeNS(null,"stroke","none"),r.appendChild(e);var i=e.getTotalLength();return function(t){var n=e.getPointAtLength(i*t);return{x:n.x,y:n.y}}}function gt(t){return ht[t]?ht[t]:ht[t]=yt(t)}function dt(t,n,r,e){if(!t||!e)return!1;var i=["M",t.x,t.y];if(n&&r&&(i.push("C"),i.push(n.x),i.push(n.y),i.push(r.x),i.push(r.y)),n?!r:r){var u=n||r;i.push("Q"),i.push(u.x),i.push(u.y)}return n||r||i.push("L"),i.push(e.x),i.push(e.y),i.join(" ")}function pt(t,n,r,e){var i=arguments.length>4&&void 0!==arguments[4]?arguments[4]:1,u=dt(t,n,r,e),o=gt(u);try{return o(i)}catch(t){return null}}function bt(t,n,r,e){var i=1-e;return i*i*t+2*i*e*n+e*e*r}function mt(t,n,r,e){return 2*(1-e)*(n-t)+2*e*(r-n)}function wt(t,n,r,e){var i=arguments.length>4&&void 0!==arguments[4]&&arguments[4],u=pt(t,n,null,r,e);return u||(u={x:bt(t.x,n.x,r.x,e),y:bt(t.y,n.y,r.y,e)}),i&&(u.a=At(t,n,r,e)),u}function At(t,n,r,e){return Math.atan2(mt(t.y,n.y,r.y,e),mt(t.x,n.x,r.x,e))}function xt(t,n,r,e,i){var u=i*i;return i*u*(e-t+3*(n-r))+3*u*(t+r-2*n)+3*i*(n-t)+t}function kt(t,n,r,e,i){var u=1-i;return 3*(u*u*(n-t)+2*u*i*(r-n)+i*i*(e-r))}function _t(t,n,r,e,i){var u=arguments.length>5&&void 0!==arguments[5]&&arguments[5],o=pt(t,n,r,e,i);return o||(o={x:xt(t.x,n.x,r.x,e.x,i),y:xt(t.y,n.y,r.y,e.y,i)}),u&&(o.a=St(t,n,r,e,i)),o}function St(t,n,r,e,i){return Math.atan2(kt(t.y,n.y,r.y,e.y,i),kt(t.x,n.x,r.x,e.x,i))}function Ot(t,n,r){return t+(n-t)*r}function jt(t,n,r){var e=arguments.length>3&&void 0!==arguments[3]&&arguments[3],i={x:Ot(t.x,n.x,r),y:Ot(t.y,n.y,r)};return e&&(i.a=Pt(t,n)),i}function Pt(t,n){return Math.atan2(n.y-t.y,n.x-t.x)}function Et(t,n,r){var e=arguments.length>3&&void 0!==arguments[3]&&arguments[3];if(It(n)){if(Bt(r))return wt(n,r.start,r,t,e)}else if(It(r)){if(n.end)return wt(n,n.end,r,t,e)}else{if(n.end)return r.start?_t(n,n.end,r.start,r,t,e):wt(n,n.end,r,t,e);if(r.start)return wt(n,r.start,r,t,e)}return jt(n,r,t,e)}function Mt(t,n,r){var e=Et(t,n,r,!0);return e.a=function(t){return arguments.length>1&&void 0!==arguments[1]&&arguments[1]?t+Math.PI:t}(e.a)/y,e}function It(t){return!t.type||"corner"===t.type}function Bt(t){return null!=t.start&&!It(t)}var Rt=new ct;var Ft={f:function(t){return t?t.join(" "):""},i:function(t,r,e){if(0===t)return r;if(1===t)return e;var i=r.length;if(i!==e.length)return A(t,r,e);for(var u,o=new Array(i),a=0;a<i;a++){if((u=n(r[a]))!==n(e[a]))return A(t,r,e);if("number"===u)o[a]=x(t,r[a],e[a]);else{if(r[a]!==e[a])return A(t,r,e);o[a]=r[a]}}return o}},Nt={f:null,i:E,u:function(t,n){return function(r){var e=n(r);t.setAttribute("x1",Z(e[0])),t.setAttribute("y1",Z(e[1])),t.setAttribute("x2",Z(e[2])),t.setAttribute("y2",Z(e[3]))}}},Tt={f:Z,i:x},qt={f:Z,i:function(t,n,r){var e=x(t,n,r);return e<=0?0:e>=1?1:e}},Lt={f:function(t){var n=arguments.length>1&&void 0!==arguments[1]?arguments[1]:" ";return t&&t.length>0&&(t=t.map((function(t){return h(t,4)}))),K(t,n)},i:function(t,n,r){var e,i,u,o=n.length,a=r.length;if(o!==a)if(0===o)n=M(o=a,0);else if(0===a)a=o,r=M(o,0);else{var l=(u=(e=o)*(i=a)/function(t,n){for(var r;n;)r=n,n=t%n,t=r;return t||1}(e,i))<0?-u:u;n=I(n,Math.floor(l/o)),r=I(r,Math.floor(l/a)),o=a=l}for(var f=[],s=0;s<o;s++)f.push(h(k(t,n[s],r[s])));return f}};function Ct(t,n,r,e,i,u,o,a){return n=function(t,n,r){for(var e,i,u,o=t.length-1,a={},l=0;l<=o;l++)(e=t[l]).e&&(e.e=n(e.e)),e.v&&"g"===(i=e.v).t&&i.r&&(u=r.getElementById(i.r))&&(a[i.r]=u.querySelectorAll("stop"));return a}(t,e,a),function(e){var i,u=r(e,t,Dt);return u?"c"===u.t?X(u.v):"g"===u.t?(n[u.r]&&function(t,n){for(var r=0,e=t.length;r<e;r++)t[r].setAttribute("stop-color",X(n[r]))}(n[u.r],u.v),(i=u.r)?"url(#"+i+")":"none"):"none":"none"}}function Dt(t,n,r){if(0===t)return n;if(1===t)return r;if(n&&r){var e=n.t;if(e===r.t)switch(n.t){case"c":return{t:e,v:j(t,n.v,r.v)};case"g":if(n.r===r.r)return{t:e,v:P(t,n.v,r.v),r:n.r}}}return A(t,n,r)}var Vt={blur:S,brightness:k,contrast:k,"drop-shadow":function(t,n,r){return 0===t?n:1===t?r:{blur:S(t,n.blur,r.blur),offset:_(t,n.offset,r.offset),color:j(t,n.color,r.color)}},grayscale:k,"hue-rotate":x,invert:k,opacity:k,saturate:k,sepia:k};function zt(t,n,r){if(0===t)return n;if(1===t)return r;var e=n.length;if(e!==r.length)return A(t,n,r);for(var i,u=[],o=0;o<e;o++){if(n[o].type!==r[o].type)return n;if(!(i=Vt[n[o].type]))return A(t,n,r);u.push({type:n.type,value:i(t,n[o].value,r[o].value)})}return u}var Gt={blur:function(t){return t?function(n){t.setAttribute("stdDeviation",W(n))}:null},brightness:function(t,n,r){return(t=Qt(r,n))?function(n){n=Z(n),t.map((function(t){return t.setAttribute("slope",n)}))}:null},contrast:function(t,n,r){return(t=Qt(r,n))?function(n){var r=Z((1-n)/2);n=Z(n),t.map((function(t){t.setAttribute("slope",n),t.setAttribute("intercept",r)}))}:null},"drop-shadow":function(t,n,r){var e=r.getElementById(n+"-blur");if(!e)return null;var i=r.getElementById(n+"-offset");if(!i)return null;var u=r.getElementById(n+"-flood");return u?function(t){e.setAttribute("stdDeviation",W(t.blur)),i.setAttribute("dx",Z(t.offset.x)),i.setAttribute("dy",Z(t.offset.y)),u.setAttribute("flood-color",X(t.color))}:null},grayscale:function(t){return t?function(n){t.setAttribute("values",K(function(t){return[.2126+.7874*(t=1-t),.7152-.7152*t,.0722-.0722*t,0,0,.2126-.2126*t,.7152+.2848*t,.0722-.0722*t,0,0,.2126-.2126*t,.7152-.7152*t,.0722+.9278*t,0,0,0,0,0,1,0]}(n)))}:null},"hue-rotate":function(t){return t?function(n){return t.setAttribute("values",Z(n))}:null},invert:function(t,n,r){return(t=Qt(r,n))?function(n){n=Z(n)+" "+Z(1-n),t.map((function(t){return t.setAttribute("tableValues",n)}))}:null},opacity:function(t,n,r){return(t=r.getElementById(n+"-A"))?function(n){return t.setAttribute("tableValues","0 "+Z(n))}:null},saturate:function(t){return t?function(n){return t.setAttribute("values",Z(n))}:null},sepia:function(t){return t?function(n){return t.setAttribute("values",K(function(t){return[.393+.607*(t=1-t),.769-.769*t,.189-.189*t,0,0,.349-.349*t,.686+.314*t,.168-.168*t,0,0,.272-.272*t,.534-.534*t,.131+.869*t,0,0,0,0,0,1,0]}(n)))}:null}};var Yt=["R","G","B"];function Qt(t,n){var r=Yt.map((function(r){return t.getElementById(n+"-"+r)||null}));return-1!==r.indexOf(null)?null:r}var Ut={fill:Ct,"fill-opacity":qt,stroke:Ct,"stroke-opacity":qt,"stroke-width":Tt,"stroke-dashoffset":{f:Z,i:x},"stroke-dasharray":Lt,opacity:qt,transform:function(t,r,e,i){if(!(t=function(t,r){if(!t||"object"!==n(t))return null;var e=!1;for(var i in t)t.hasOwnProperty(i)&&(t[i]&&t[i].length?(t[i].forEach((function(t){t.e&&(t.e=r(t.e))})),e=!0):delete t[i]);return e?t:null}(t,i)))return null;var u=function(n,i,u){var o=arguments.length>3&&void 0!==arguments[3]?arguments[3]:null;return t[n]?e(i,t[n],u):r&&r[n]?r[n]:o};return r&&r.a&&t.o?function(n){var r=e(n,t.o,Mt);return Rt.recomposeSelf(r,u("r",n,x,0)+r.a,u("k",n,_),u("s",n,_),u("t",n,_)).toString()}:function(t){return Rt.recomposeSelf(u("o",t,Et,null),u("r",t,x,0),u("k",t,_),u("s",t,_),u("t",t,_)).toString()}},"#filter":function(t,n,r,e,i,u,o,a){if(!n.items||!t||!t.length)return null;var l=function(t,n){var r=(t=t.map((function(t){return t&&Gt[t[0]]?(n.getElementById(t[1]),Gt[t[0]](n.getElementById(t[1]),t[1],n)):null}))).length;return function(n){for(var e=0;e<r;e++)t[e]&&t[e](n[e].value)}}(n.items,a);return l?(t=function(t,n){return t.map((function(t){return t.e=n(t.e),t}))}(t,e),function(n){l(r(n,t,zt))}):null},"#line":Nt,points:{f:K,i:E},d:Ft,r:Tt,"#size":nt,"#radius":tt,_:function(t,n){if(Array.isArray(t))for(var r=0;r<t.length;r++)this[t[r]]=n;else this[t]=n}},$t=function(t){!function(t,n){if("function"!=typeof n&&null!==n)throw new TypeError("Super expression must either be null or a function");t.prototype=Object.create(n&&n.prototype,{constructor:{value:t,writable:!0,configurable:!0}}),n&&a(t,n)}(e,t);var n=f(e);function e(){return r(this,e),n.apply(this,arguments)}return i(e,null,[{key:"build",value:function(t){var n=s(o(e),"build",this).call(this,t,Ut);if(!n)return null;n.el,n.options,function(t,n,r){t.play()}(n.player)}}]),e}(J);return $t.init(),$t}));
(function(s,i,o,w){w[o]=w[o]||{};w[o][s]=w[o][s]||[];w[o][s].push(i);})('7c8cb2ed',{"root":"eUm4XnsHJzQ1","animations":[{"elements":{"eUm4XnsHJzQ3":{"transform":{"data":{"t":{"x":-484.50029,"y":-114.522869}},"keys":{"o":[{"t":2000,"v":{"x":484.50029,"y":-69.499998,"type":"corner"},"e":[0.445,0.05,0.55,0.95]},{"t":3000,"v":{"x":484.50029,"y":114.522869,"type":"corner"}}]}},"opacity":[{"t":2500,"v":0,"e":[0.445,0.05,0.55,0.95]},{"t":3000,"v":1}]},"eUm4XnsHJzQ4":{"transform":{"data":{"t":{"x":-484.50029,"y":-114.522869}},"keys":{"o":[{"t":0,"v":{"x":484.50029,"y":114.522869,"type":"corner"},"e":[0.445,0.05,0.55,0.95]},{"t":2000,"v":{"x":484.50029,"y":320.500002,"type":"corner"}}]}},"opacity":[{"t":1500,"v":1,"e":[0.445,0.05,0.55,0.95]},{"t":2000,"v":0}]},"eUm4XnsHJzQ5":{"transform":{"keys":{"o":[{"t":0,"v":{"x":207,"y":195,"type":"corner"},"e":[1,0,0,1]},{"t":300,"v":{"x":207,"y":195,"type":"corner"},"e":[1,0,0,1]},{"t":1500,"v":{"x":207,"y":195,"type":"corner"},"e":[1,0,0,1]},{"t":3000,"v":{"x":207,"y":195,"type":"corner"}}],"s":[{"t":0,"v":{"x":1,"y":1},"e":[1,0,0,1]},{"t":200,"v":{"x":1,"y":1},"e":[1,0,0,1]},{"t":1100,"v":{"x":1,"y":1.04}},{"t":3000,"v":{"x":1,"y":1}}]}}},"eUm4XnsHJzQ15":{"transform":{"data":{"t":{"x":-135.500656,"y":-360.522858}},"keys":{"o":[{"t":0,"v":{"x":135.500656,"y":360.522858,"type":"corner"},"e":[0.445,0.05,0.55,0.95]},{"t":2000,"v":{"x":135.500656,"y":1045.499991,"type":"corner"}}]}},"opacity":[{"t":1200,"v":1,"e":[0.445,0.05,0.55,0.95]},{"t":1500,"v":0}]},"eUm4XnsHJzQ16":{"transform":{"data":{"t":{"x":-135.500656,"y":-360.522858}},"keys":{"o":[{"t":2000,"v":{"x":135.500656,"y":-754.500009,"type":"corner"},"e":[0.445,0.05,0.55,0.95]},{"t":3000,"v":{"x":135.500656,"y":360.522858,"type":"corner"}}]}},"opacity":[{"t":2700,"v":0,"e":[0.445,0.05,0.55,0.95]},{"t":3000,"v":1}]},"eUm4XnsHJzQ17":{"transform":{"data":{"t":{"x":-661.500427,"y":-316.522858}},"keys":{"o":[{"t":0,"v":{"x":661.500427,"y":316.522858,"type":"corner"},"e":[0.445,0.05,0.55,0.95]},{"t":2000,"v":{"x":661.500427,"y":1360,"type":"corner"}}]}},"opacity":[{"t":1000,"v":1,"e":[0.445,0.05,0.55,0.95]},{"t":1300,"v":0}]},"eUm4XnsHJzQ18":{"transform":{"data":{"t":{"x":-661.500427,"y":-316.522858}},"keys":{"o":[{"t":2300,"v":{"x":661.500427,"y":-1669.500009,"type":"corner"},"e":[0.445,0.05,0.55,0.95]},{"t":3000,"v":{"x":661.500427,"y":316.522858,"type":"corner"}}]}},"opacity":[{"t":2800,"v":0,"e":[0.445,0.05,0.55,0.95]},{"t":3000,"v":1}]}},"s":"MDA1GM1VkZTg1YzdkOGQ1YzRkN0JjBY2QyZDE4NTlkOTY5M0I5MzkzUOGZZODVjN0RMY2NkNWM4YzZkFN2NjZDJkMTg1OWQ5NDhmODVjRY2Q3YzhkNUJjNEhkN2NjZDJIGZDFkNjg1OWQ5MzhmODVjOWNjKY2ZjZjg1OWQ5NDhmODVjNGNmOZDdjOGQ1ZDFjNGQ3YzhCODU5JZGM5WWM0Y2ZkNmM4QjhmODVkJNmQzYzhjOGM3ODU5ZEc5NGUwO"}],"options":"MDAxWMDhmMzY4Nzg4NzU4Njg4MzY0BZTM2ODA4M1M3NTc4MzY5MQ|"},'__SVGATOR_PLAYER__',window)]]></script></svg>