<?xml version="1.0" encoding="UTF-8"?>
<svg width="68px" height="56px" viewBox="0 0 68 56" version="1.1" xmlns="http://www.w3.org/2000/svg" xmlns:xlink="http://www.w3.org/1999/xlink">
    <title>Twitter social icons - rounded square - white</title>
    <g id="Page-1" stroke="none" stroke-width="1" fill="none" fill-rule="evenodd">
        <g id="Twitter-social-icons---rounded-square---white" transform="translate(0.100000, 0.400000)" fill="#FFFFFF" fill-rule="nonzero">
            <path d="M21.2475394,55 C46.7716535,55 60.738189,33.8336614 60.738189,15.5093504 C60.738189,14.913878 60.738189,14.3184055 60.711122,13.7229331 C63.417815,11.7741142 65.7726378,9.31102362 67.6402559,6.52312992 C65.1500984,7.63287402 62.4704724,8.3636811 59.6555118,8.71555118 C62.5246063,7.01033465 64.7170276,4.2765748 65.7726378,1.02854331 C63.0930118,2.62549213 60.1156496,3.76230315 56.9488189,4.38484252 C54.4045276,1.67814961 50.804626,3.84644198e-15 46.8257874,3.84644198e-15 C39.1658465,3.84644198e-15 32.9404528,6.2253937 32.9404528,13.8853346 C32.9404528,14.9680118 33.0757874,16.023622 33.2923228,17.0521654 C21.761811,16.4837598 11.5305118,10.9350394 4.68257874,2.54429134 C3.49163386,4.60137795 2.81496063,6.98326772 2.81496063,9.52755906 C2.81496063,14.3454724 5.27805118,18.5949803 8.98622047,21.0851378 C6.71259843,21.003937 4.57431102,20.3813976 2.70669291,19.3528543 C2.70669291,19.4069882 2.70669291,19.461122 2.70669291,19.5423228 C2.70669291,26.2549213 7.49753937,31.8848425 13.8312008,33.1569882 C12.6673228,33.4817913 11.449311,33.6441929 10.1771654,33.6441929 C9.28395669,33.6441929 8.41781496,33.5629921 7.57874016,33.4005906 C9.33809055,38.9222441 14.4808071,42.9281496 20.5437992,43.0364173 C15.7800197,46.7716535 9.79822835,48.9911417 3.30216535,48.9911417 C2.19242126,48.9911417 1.08267717,48.9370079 1.09518693e-14,48.8016732 C6.11712598,52.699311 13.4251969,55 21.2475394,55" id="Shape"></path>
        </g>
    </g>
</svg>